<svg width="30" height="30" viewBox="0 0 30 30" xmlns="http://www.w3.org/2000/svg">
    <g fill="#EC71A1" fill-rule="nonzero">
        <path d="M17.111 19.755 13.963 22.9a4.856 4.856 0 0 1-6.815-.045 4.846 4.846 0 0 1-.048-6.81l3.148-3.149a.964.964 0 1 0-1.365-1.363L5.736 14.68a6.774 6.774 0 0 0 .002 9.585 6.787 6.787 0 0 0 9.593-.002l3.148-3.146a.964.964 0 0 0-1.365-1.363h-.003zM24.27 5.738a6.732 6.732 0 0 0-4.794-1.988 6.736 6.736 0 0 0-4.792 1.984L11.533 8.88a.965.965 0 1 0 1.364 1.365l3.15-3.146a4.85 4.85 0 0 1 6.856 6.857l-3.147 3.146a.965.965 0 1 0 1.365 1.364l3.146-3.144a6.786 6.786 0 0 0 .002-9.585z"/>
        <path d="m17.161 11.513-5.625 5.625a.937.937 0 1 0 1.326 1.326l5.625-5.625a.937.937 0 0 0-1.326-1.326z"/>
    </g>
</svg>
